<?xml version="1.0" encoding="UTF-8"?><svg xmlns="http://www.w3.org/2000/svg" xmlns:xlink="http://www.w3.org/1999/xlink" viewBox="0 0 1080 1080"><defs><style>.cls-1,.cls-2,.cls-3{fill:#231f20;}.cls-4{fill:none;}.cls-5{fill:#1b84ab;}.cls-2{font-size:100.8px;}.cls-2,.cls-3{font-family:Chango-Regular, Chango;}.cls-6{fill:#f6aa59;}.cls-7{fill:#9f4523;}.cls-3{font-size:99px;}.cls-8{clip-path:url(#clippath);}.cls-9{fill:#fcba73;}</style><clipPath id="clippath"><path class="cls-4" d="M993.81,634.29c-13.45,33.49-70.29,62.43-70.29,62.43-47.23,24.05-82.69,35.62-82.69,35.62-52.06,16.98-104.64,33.93-185.82,50.07-65.3,12.99-115.57,18.72-155.64,23.32-35.63,4.09-72.02,6.46-144.8,11.2-48.64,3.17-111.4,6.76-173.86-12.15-17.88-5.41-39.39-13.78-42.17-28.33-2.31-12.06,9.24-23.27,14.82-28.54,42.1-39.78,170.93-82.96,202.19-93.21,10.87-3.35,135.46-41.45,234.47-58.79,41.9-7.33,84.34-12.56,84.34-12.56,24.69-3.03,46.43-5.14,64.32-6.64,27.87-2.07,77.7-4.52,129.29.59,6.09.61,32.07,3.29,63.58,12.04,4.31,1.06,13.66,3.48,24.33,7.52,10.66,4.04,22.65,9.7,32.24,17.26,2.12,1.67,5.2,4.28,6.58,8.45,0,0,1.72,5.21-.89,11.72Z"/></clipPath></defs><g id="Layer_8"><path class="cls-5" d="M944.94,677.33c-14.87,4.69-29.76,9.17-45.81,10.98-15.98,1.89-32.61,1.93-49.27-.1-16.68-2.03-33.48-6.12-49.45-12.69-7.98-3.29-15.76-7.2-23.05-11.81-3.65-2.32-7.18-4.8-10.55-7.47l-1.26-1.01-1.08-.89-1.33-1.14c-1.78-1.47-3.5-3.15-5.23-4.81l-10.39-10.29-8.08,11.81c-1.34,2.01-2.74,3.92-4.14,5.84l-2.15,2.87-1.05,1.34c-2.82,3.54-5.73,6.98-8.81,10.3-6.15,6.64-12.85,12.76-20.1,18.27-14.46,11.06-31.1,19.48-49.02,24.92-20.03,6.12-41.09,8.4-61.88,7.94-20.83-.48-41.45-3.67-61.31-8.64-19.88-4.98-39.03-11.75-57.2-19.79-9.17-4.05-17.84-8.2-25.91-13.06-8.11-4.88-15.75-10.3-22.81-16.27-28.41-23.85-46.61-56.15-55.01-88.44-6.73-25.69-7.71-51.3-4.4-74.6.19-1.31.38-2.61.6-3.92.78-4.73,1.68-9.38,2.81-13.88,5.25-21.06,14.53-39.47,26.43-53.18,4.48-6.05,9.41-11.93,14.81-17.57,2.89-3.02,5.87-5.91,8.92-8.7-5.5,2.25-10.99,5.16-16.26,8.88-20.04,13.94-36.21,38.13-45.05,67.31-8.88,29.2-11.06,63.75-3.22,99.31,3.92,17.72,10.48,35.66,20.04,52.71,9.55,17.05,22.21,33.14,37.65,46.95,7.7,6.9,16.11,13.2,25.01,18.87,8.97,5.7,18.5,10.52,27.9,14.93,19.02,8.88,39.2,16.45,60.39,22.1,2.33.62,4.73,1.13,7.08,1.7,90.53,34.99,201.09,17.18,291.06-3.93-30.29.12-103.1-30.69-77.27-54.05,1.09-1.35,2.28-2.62,3.34-3.99l1.11-1.49.03-.03.05-.1.11-.25.2.12.11.07h.03s.3.25.3.25l1.53,1.19c4.09,3.13,8.33,6.02,12.64,8.62,8.62,5.26,17.61,9.57,26.69,13.09,18.18,7.04,36.82,11.1,55.2,12.88,18.36,1.76,36.5,1.22,53.89-1.39,17.37-2.5,34.12-7.45,49.29-13.58,10.48-4.2,20.46-8.83,30.05-13.72,27.76-20.36,59.11-36.34,81.88-87.64-1.1.69-48.05,63.09-118.06,85.17Z"/><path class="cls-5" d="M780.05,773.93c32.42-9.21,49.33-17.5,49.36-17.3,0-.2-17.55,6.71-49.8,13.53-32.15,6.74-79.28,12.62-134.63,9.14-55.06-3.46-118.96-15.88-177.42-45.54-29.08-14.82-56.53-34.05-78.75-58.43-22.22-24.34-38.9-53.85-46.86-87.46-8.28-33.69-9.17-68.76-.68-102.45,8.35-33.65,22.88-69.29,50.78-91.9,36.39-29.49,101.32-28.94,126.41,7.77-4.05,17.51-.28,36.72,8.74,53.51,9.28,17.28,23.52,30.39,38.43,38.08,14.95,7.81,30.17,10.12,42.29,9.69.32-.03.62-.04.94-.06,1.58,2.28,3.33,4.55,5.47,6.74,10.39,11.1,28.04,18.97,47.62,20.37,19.6,1.57,41.16-2.41,61.36-11.82,20.21-9.41,37.07-23.52,48.44-39.38,10.38-14.27,15.84-29.82,17.52-43.31,6.08-2.38,12.16-5.65,17.92-9.92,13.93-10.24,26.66-26.31,31.58-46.86,2.43-10.21,2.56-20.84.54-30.58-2-9.75-6.03-18.52-10.89-25.8-9.89-14.66-22.43-23.6-33.02-29.68-3.54-1.97-6.87-3.64-10.03-5.07-1.98-17.27-9.57-37.05-24.35-54.61-8.14-9.68-18.42-18.69-30.91-25.6-6.23-3.45-12.99-6.38-20.22-8.49-1.81-.54-3.66-1-5.5-1.43l-1.39-.32c-.49-.1-.05-.02-.21-.06l-.11-.08c-.13-.11-.24-.15-.21-.24l.28-.33.03-.02s0,.16.12-.6c.18-1.07.3-2.16.43-3.25.23-2.19.33-4.39.3-6.61-.15-8.89-2.58-17.91-7.26-25.84-3.37-5.72-7.83-10.84-13.32-14.85-5.49-3.99-12.13-6.92-19.36-7.72-3.6-.43-7.3-.27-10.85.4-1.79.35-3.54.84-5.2,1.42-.75.28-1.89.7-2.28.9-.11.06-.16.1-.16.11-.14.18-.37.49-.64.94l-.3.52s-.06-.07-.09-.14l-.26-.56-.21-.44-.13-.25-.07-.15-.36-1.26c-.99-3.5-2.36-7.03-4.18-10.34-3.58-6.68-9.3-12.45-15.76-15.86-6.45-3.5-13.22-4.87-19.41-5.18-12.5-.52-22.87,3.48-32.44,6.21-32.01,9.12-43.08,18.9-49.74,23.72-3-5.72-7.95-10.51-13.6-14.11-11.43-7.22-25.36-10.71-40.13-12.31-14.83-1.5-30.73-.94-47.22,1.98-16.44,3.05-33.71,8.15-50.18,18.65-8.12,5.3-16.2,12.21-22.14,21.93-2.94,4.85-5.2,10.42-6.32,16.32-.56,2.95-.84,5.96-.85,8.96.01.75,0,1.5.04,2.24l.07,1.01h-.01s-3.41,3.78-3.41,3.78l-4.99,5.38-4.21,4.6s0,.06-.01.12c-.02.02-.04.03-.09.04h-.03s.02.02-.08-.02l-.8-.32-3.22-1.21c-4.3-1.55-8.71-2.84-13.17-3.83-8.94-1.97-18.15-2.7-27.14-1.91-18.08,1.45-34.73,9.5-46.42,20.7-11.84,11.18-19.15,24.9-22.95,38.11-1.48,5.12-2.38,10.15-2.92,15.08-35.39,10.52-80.09,36.43-79.31,102.02-20.47,9.54-47.27,33.65-30.49,75.07-25.64.76-41.66,49.73-38.27,72.32-36.38-5.91-52.14,58.5-3.88,97.99-11.63,5.89-29.14,1.52-29.5,23.21,1.49,24.02,16.5,39.02,21.33,60.3,4.32,19.02,3.9.92,4.32,19.02,1.51,64.82,58.68,136.46,100.68,139.83-45.49-22.99-90.34-96.83-64.76-143.37-31.71-28.31-27.68-87.28-10.3-86.48,2.73.13,3.39,4.69,2.73.13-35.22-33.12-33.28-86.26,7.96-102.97-17.91-34.06,5.82-45.9,29.66-63.76-6.06-32.25,5.32-53.85,27.86-76.99-9.9,15.34-31.85,63.13-9.94,75.65-17.53,20-47.01,60.72-6.54,76.64-29.93,30.35-38.93,72.39,2.73,98.9-13.74.63-50.44,1-38.81,36.03,5.13,19.42,31.4,33.23,35.44,36.02,8.38,31.29,18.6,58.01,28.86,77.46,63.35,120.06,200.26,205.08,362.77,177.86-86.98-23.61-171.74-41.26-223.88-104.41,62.9,29.99,339.11,159.82,615.05-49.2-234.21,107.45-422.29,122.63-593.16-33.01-114.3-104.11-36.34-53.92-36.14-53.75,5.99,4.93-57.34-89.66-60.91-107.68-1.79-9.01-1.88-18.52-.52-28.91.64-5.23,1.63-10.69,2.29-16.9.17-1.55.3-3.15.38-4.82l.07-2.66c-.04-1.26-.05-2.59-.17-3.87-.2-2.6-.63-5.15-1.25-7.61l-.93-3.74-.49-1.91c-.19-.59-.41-1.08-.61-1.62-3.61-.32-7.56-.42-11.15-1.12-.59-.14-.51-.14-.7-.19-.13-.05-.25-.11-.37-.16-.23-.1-.48-.19-.66-.32-.43-.2-.74-.46-1.04-.67-1.06-.93-1.54-1.8-1.95-4-.74-4.45.96-11.81,3.88-18.61,2.93-6.92,7.01-13.9,11.77-20.42l1.81-2.42,2.75-3.43c2.78-3.32,5.88-6.7,9.78-10.07l25.72-21.29-32.92-1.22c-5.36-.27-10.08-.92-14.25-2.27-.69-.19-.66-.22-.88-.29l-.54-.2-.99-.43c-.63-.31-1.23-.6-1.72-.91-1.19-.73-1.92-1.44-2.22-1.92-.32-.48-.43-.74-.5-1.41-.18-1.29.68-4.4,2.73-7.44.49-.77,1.04-1.54,1.65-2.31l.93-1.15.49-.56c.13-.16.32-.36.78-.83,1.33-1.47,3.51-3.43,5.49-5.04,2.11-1.66,4.37-3.26,7-4.86l33.16-19.35-31.4-2.99c-5.3-.49-10.05-.96-14.12-1.88-2.03-.45-3.96-.97-5.79-1.59-.95-.27-1.8-.64-2.68-.97l-1.31-.52c-3.6-1.5-6.83-3.44-9.72-5.7-.57-.45-1.16-.88-1.7-1.35-1.25-1.1-2.43-2.26-3.51-3.5-7.93-9.03-11.01-21.93-10.62-34.24.34-12.41,3.77-24.34,8.7-34.49,4.96-10.14,11.52-18.59,18.77-24.7,1.54-.4,3.1-.64,4.68-.74,1.8,8.36,4.52,15.8,7.66,21.97,4.01,7.86,8.49,13.91,12.43,18.51,8,9.13,13.54,12.77,13.45,12.86.1-.05-4.63-4.78-10.79-14.8-6.03-9.9-13.29-25.86-13.44-46.21,0-.05,0-.11,0-.16-.02-2.49.07-5.04.29-7.62.68-7.84,2.47-16.03,5.76-24.04,4.36-10.7,11.43-21.1,21.21-28.88,9.72-7.83,22.13-12.69,35.49-13.07,6.69-.23,13.58.63,20.48,2.42,3.45.91,6.9,2.03,10.32,3.39l2.56,1.05,2.01.87c.94.4,1.88.85,2.82,1.3l11.33,5.6c3.08-3.69,6.19-7.68,9.41-11.28l3.3-3.62,2.48-2.63,5.13-5.45c1.92-2.09,2.92-3.09,6.52-7.36l4.45-5.46-1.06-6.85c-.1-.54-.15-1.22-.19-1.82l-.05-.58c-.03-.4,0-.79-.04-1.18,0-1.54.12-3.06.4-4.56.52-2.99,1.59-5.88,3.2-8.7,3.23-5.65,8.53-10.81,14.63-15.11,12.35-8.66,27.25-14.25,41.64-17.96,14.49-3.65,28.85-5.41,42.15-5.37,13.23.07,25.67,1.92,35.22,6.45,4.74,2.25,8.64,5.22,11.2,8.79,2.56,3.55,3.75,7.73,3.87,11.91.14,8.49-3.16,16.14-6.01,21.94-6.12,11.68-11.1,17.43-10.94,17.5-.13-.13,5.81-4.67,14.08-15.58,3.79-5.42,8.56-12.47,10.17-22.7,5.58-6.3,14.79-14.09,27.83-20.72,6.74-3.44,14.49-6.59,23.02-8.77,8.45-2.14,17.9-3.4,26.75-1.98,4.39.72,8.51,2.15,11.77,4.41,3.27,2.26,5.71,5.26,7.4,9.13.85,1.93,1.49,4.06,1.96,6.39l.17.93.35,2.1c.19,1.42.35,2.85.41,4.37.2,2.97.04,6.29-.22,9.89-1.27,14.61-3.29,33-4.16,44.88l17.2-25.07,7.51-10.87c2.22-3.13,4.23-5.41,6.3-6.8l1.56-1.08,1.51-.74c.69-.34.72-.27,1.14-.43.64-.19,1.28-.34,1.91-.42,1.27-.18,2.57-.2,3.88,0,5.31.69,11.36,5.1,14.97,11.41,2.58,4.33,3.99,9.34,4.18,14.35.03,1.26.02,2.51-.08,3.77-.08.64-.11,1.26-.22,1.89l-.35,1.94-.68,2.52c-.98,3.34-2.68,6.87-4.19,10.43l-4.48,10.31c6.94.31,14.46.49,21.42.88l5.01.55,3.4.54c1.46.25,2.9.54,4.31.88,5.7,1.32,11.2,3.29,16.41,5.71,10.45,4.84,19.73,11.53,27.43,19.04,11.85,11.47,19.99,24.76,24.62,37.53-1.25-.43-2.48-.84-3.58-1.19-6.41-1.99-10.03-2.74-10.02-2.75l8.34,6.07c2.21,1.66,4.83,3.67,7.73,6.01,3.31,2.67,6.96,5.76,10.82,9.35.8.72,1.59,1.46,2.38,2.24,8.09,7.84,16.91,17.91,22.71,30.14,5.86,12.2,8.06,26.44,4.57,40.85-3.42,14.4-11.66,27.38-21.32,36.94-1.61,1.6-3.27,3.06-4.94,4.46-3.06,2.56-6.2,4.81-9.38,6.71-5.62,3.37-11.31,5.71-16.73,6.88-10.16,2.32-19.1.19-24.79-2.56-5.72-2.77-8.53-5.42-8.57-5.32.08-.07,1.54,3.39,6.43,8.36,2.47,2.43,5.94,5.16,10.6,7.34,4.66,2.22,10.55,3.8,17.18,4.07,3.17.14,6.53-.05,9.93-.53-4.05,8.95-9.92,18.08-17.84,26.54-11.06,11.87-25.83,22.47-42.91,30.44-17.06,7.96-34.76,12.58-50.82,13.31-15.55.8-29.42-2.44-39.37-8.76-.33-.2-.68-.37-.98-.58-4.08-2.66-7.4-5.73-10.13-8.9-4.12-4.74-6.92-9.69-8.74-13.69-3.05-6.77-4-10.99-4.07-10.96.08,0-.51,4.22.48,11.99.41,2.9,1.07,6.33,2.33,10.1-8.5-2.69-17.44-6.84-25.85-13.02-10.79-7.84-20.72-18.9-27.91-32.23-7.16-13.24-10.91-27.61-9.74-39.5.57-5.92,2.37-11.1,5.32-15.17,2.91-4.1,7.05-7.15,11.56-9.15,6.64-2.94,13.4-3.88,19.01-4.23,1.22-.07,2.38-.12,3.47-.15.8-.02,1.57-.04,2.28-.05,6.34,0,9.96.39,9.95.34-.02.04-3.13-1.75-9.3-4.01-4.93-1.64-12.05-3.92-21.33-3.85-.11-.91-.15-1.85-.22-2.79,1.5-6.4,4.24-15.16,10.5-23.16,4.15-5.41,10.06-9.98,17.26-13.03,4.14-1.76,8.71-3.02,13.65-3.63.01,0,.02,0,.04,0,13.42-1.76,29.09.83,43.45,7.63,14.41,6.78,25.78,17.19,32.27,29.07,6.66,11.86,8.36,25.09,7.73,36.42-.6,11.38-3.08,20.85-4.97,27.32-1.95,6.48-3.32,10.07-3.28,10.08-.03-.03,2.61-2.79,6.63-8.46,3.95-5.69,9.48-14.35,13.33-26.8,1.92-6.23,3.29-13.44,3.4-21.42.03-2.5-.04-12.98-4.51-25.4-6.52-18.08-18.47-29.39-25.02-34.72-4.65-3.85-11.55-9.09-20.51-14.25-27.62-15.9-53.23-18.66-69.59-20.25-10.66-1.04-44.66-3.52-86.27,8.99-27.83,8.37-46.43,19.65-69.78,33.81-18.87,11.44-41.98,25.18-66.72,48.88-31.43,30.11-60.7,69.83-78.58,117.99-8.85,24.03-14.27,49.04-14.97,73.88-.66,24.39,2.51,47.74,8.06,69.12,11.18,42.87,31.72,77.44,52.51,102.53,20.88,25.25,41.98,41.26,56.97,50.98,15.12,9.67,24.2,13.51,24.15,13.61.08-.08-7.94-5.9-20.69-17.98-12.66-12.11-29.91-30.83-45.93-57-12.31-20.05-23.85-44.63-31.65-72.6,12.87,23.92,28.43,45.17,41.37,59.44,44.11,48.64,96.17,81.96,160.45,104.72,137.4,48.65,291.28,2.08,415.87-64.47,15.57-8.3,30.28-14.54,43.88-25.2-116.7,38.25-213.04,83.36-339.16,81.81,15.41-6.93,125.11-31.59,150.98-38.89ZM211.54,279.98c-.36.16-.72.36-1.07.53-.63-4.81-.14-9.73,1.04-14.52-.33,4.82-.34,9.53.04,13.99ZM524.86,149.34c-.07-1.35-.25-2.74-.5-4.13,1.27.91,1.89,2.12.5,4.13Z"/></g><g id="Layer_11"><path class="cls-9" d="M993.81,634.29c-13.45,33.49-70.29,62.43-70.29,62.43-47.23,24.05-82.69,35.62-82.69,35.62-52.06,16.98-104.64,33.93-185.82,50.07-65.3,12.99-115.57,18.72-155.64,23.32-35.63,4.09-72.02,6.46-144.8,11.2-48.64,3.17-111.4,6.76-173.86-12.15-17.88-5.41-39.39-13.78-42.17-28.33-2.31-12.06,9.24-23.27,14.82-28.54,42.1-39.78,170.93-82.96,202.19-93.21,10.87-3.35,135.46-41.45,234.47-58.79,41.9-7.33,84.34-12.56,84.34-12.56,24.69-3.03,46.43-5.14,64.32-6.64,27.87-2.07,77.7-4.52,129.29.59,6.09.61,32.07,3.29,63.58,12.04,4.31,1.06,13.66,3.48,24.33,7.52,10.66,4.04,22.65,9.7,32.24,17.26,2.12,1.67,5.2,4.28,6.58,8.45,0,0,1.72,5.21-.89,11.72Z"/><g id="Layer_14"><g class="cls-8"><path class="cls-6" d="M137.93,713.45c-3.65,1.9,3.33,3.32,9.23,5.77,2.96,1.2,5.66,2.71,6.76,4.56,1.11,1.84.64,3.96-2.72,6.63,7.73,3.3,15.2-.77,22.82-5.97,3.77-2.5,7.6-5.43,11.31-7.67,1.86-1.14,3.71-2.17,5.52-2.95,1.8-.76,3.57-1.3,5.29-1.52,3.58,9.08,3.82,18.58,6.58,26.67,2.72,8.13,7.92,14.73,20.32,18.88,7.68.72,11.05-1.25,12.31-4.88,1.25-3.63.35-8.9-.74-14.53-1.09-5.63-2.38-11.62-1.77-16.72.6-5.08,3.18-9.35,9.63-11.26-3.18-.18-6.37-.36-9.62-.47l-4.86-.18-4.92-.11c1.33-4.51,3.31-8.3,5.76-11.46,1.23-1.59,2.6-3.03,4.07-4.35,1.46-1.29,3.02-2.46,4.69-3.51,6.66-4.22,14.64-6.47,23.06-7.9,16.89-2.89,35.15-2.35,48.88-8.2,12.56,9.5,25.23,25.3,38.02,36.94,12.76,11.64,25.79,19.12,38.2,11.97-.88,3.25-6.2,11.27-3.07,21.04,3.31,4.1,6.96,4.54,10.33,3.35,3.36-1.2,6.42-4.04,8.61-6.47,4.89-12.18,2.32-19.46-1.1-25.94-3.44-6.48-7.76-12.16-6.87-21.08,2.3-3.24,4.48-6.78,6.73-10.13,2.26-3.38,4.59-6.58,7.19-9.12,5.23-5.11,11.55-7.6,20.79-3.75,9.7,12.2,19.57,24.32,29.58,36.37.59-27.6,9.14-29.97,20.65-28.49,11.49,1.48,25.92,6.8,37.62-5.24,12.21,25.33,31.41-19.64,43.65,5.67,12.87-3.98,20.83,71.57,36.57,89.15,22.8,12.3-9.68,15.55,13.14,27.85-17.39,15.71-24.51-69.67-49.11-53.64l3.82,9.5c-7.15,18.28-34.16-7.81-34.88,21.49-15.27.87-17.57-8.78-18.51-20.91-.94-12.14-.6-26.78-10.44-35.99-1.32,12.25-9.66,22.42-16.89,33.74-7.22,11.31-13.38,23.75-10.03,40.69,7.65-1.96,15.28-3.95,22.87-5.96-3.49,1.81,1.08,8.07.28,11.36-5.93-7.02-10.95-3.51-15.49,4.11-4.52,7.63-8.56,19.39-12.31,28.9-3.74,9.51-7.19,16.76-10.26,15.35-3.08-1.41-5.71-11.49-8.15-36.61,1.8-6.55,10.74-5.27,10.66-16.64-6.42-22.49-19.51-7.42-32-7.16-3.64,13.06-7.08,30.19-12.62,42.86-5.49,12.67-13.24,20.89-24.52,15.93-7.98-4.97-6.33-19.56-14.16-24.59-17.89,15.88-28.36,9.85-39.31,2.23-5.47-3.82-11.05-8.06-17.65-10.21-6.58-2.15-14.22-2.21-23.53,2.39-14.83-11.99-29.09-11.35-42.98-10.21-6.98.55-13.89,1.26-21.08.57-3.59-.32-7.27-1.03-11.07-2.2-3.82-1.22-7.76-2.89-11.96-5.31,2.59,4.64,3.06,7.86,2.27,10.05-.78,2.2-2.81,3.41-5.36,4-2.55.58-5.57.69-8.38.53-2.8-.14-5.31-.4-6.77-.58-3.47-3.73-9.95-7.62-16.7-9.23-3.34-.75-6.76-1.02-9.73-.35-2.96.69-5.58,2.08-7.22,4.67,2.63-1.76,2.06-4.17.96-7.11-1.08-2.91-2.68-6.23-1.81-9.62-2.26,2.56-4.5,4.38-6.7,5.69-2.21,1.29-4.47,1.89-6.68,2.13-4.44.44-9.03-1.2-13.49-3.78-8.94-5.24-17.62-15.02-23.74-22.65,3.05-5.81,4.5-12.13,5.53-18.18.51-3.05.9-6.09,1.3-9.07.41-2.98.84-5.8,1.42-8.53.58-2.72,1.32-5.31,2.34-7.69,1.03-2.37,2.34-4.46,4.08-6.31,3.47-3.72,8.66-6.12,16.38-6.57Z"/><path class="cls-6" d="M625,640.61c5.94,42.05,41.32,3.56,33.01,54.4,15.63,4.18,20-4.76,24.59-18.7-19.29-10.21,2.29-6.96-10.78-23.11,22.52-16.69,45.69-28.15,69.14-36.4,23.41-8.29,47.13-13.33,70.69-17.36,10.62,5.26,20,6.82,28.47,5.64,4.23-.59,8.25-1.85,12.06-3.71,3.81-1.87,7.42-4.32,10.89-7.23,3.47-2.91,6.78-6.29,9.98-10.02,3.2-3.74,6.27-7.87,9.28-12.22,6.01-8.73,11.76-18.39,17.49-28.29,11.55,2.72,16.46,12.57,18.69,24.6,2.23,12.04,1.76,26.27,2.7,37.72,8.52-2.24,17.05-4.46,25.53-6.82-5.8,11.25-11.74,22.39-17.74,33.58,3.88,15.9,15.81,13.51,25.81,23.13l5.99-6.29c3.52,18.86,1.98,29.27-2.6,34.55-4.57,5.3-12.16,5.59-20.7,4.4-17.11-2.46-37.91-10.95-47.23,3.16,14.17-6.75,11.27-12.43,5.91-18.71-5.36-6.27-13.15-13.14-9.01-22.21l-9.93.16c3.99-1.57,8.6-8.61,14.65-16.61,6.04-8.03,13.53-16.89,23.4-22.15-30.5,4.3-58.2,17.6-83.44,35.84-25.22,18.22-47.93,41.32-67.83,65.19.22-4.99,2.49-11.96-3.27-15.99-17.93,2.82-17.91,45.81-22.54,59.75l4.62-13.95c-15.22-14.16-26.53,15.71-38.71,22.56-19.08-15.21-33.99-34.41-54.66-14.7l-3.2-15.99-21.59-3.28c4.14-3.96.49-10-1.36-13.02.24-4.98,2.07-1.97,5.98-.91-4.81-24.05-23.16-54.26-38.3-68.44,3.9,1.03,7.8,2.1,9.88.11-11.48-8.12-46.6-17.55-37.4-45.43,25.96-5.65,39.24,48.48,61.52,36.74Z"/><path class="cls-6" d="M540.82,776.35c22.06,8.5-1.09,17.93,7.3,33.71l-16.48,5.81c-4.93-17.59,11.51-23.41,9.19-39.52Z"/><path class="cls-6" d="M1007.86,505.07c3.22,6.77,7.09,7.5,11.12,6.73,4.04-.75,8.15-3.13,12.02-2.4,4.28-7.85,5.61-16.19,8.48-22.39,2.86-6.22,7.19-10.39,17.63-9.82,1.03,23.39,9.46,34.64,20.78,42.54,11.29,7.92,25.35,12.33,37.11,22.49-3.55,4.45-7.14,14.43-12.81,21.36-5.66,6.9-13.41,10.71-24.78,2.84-1.41-6.39-6.09-10.17-11.38-12.53-5.31-2.41-11.23-3.41-15.17-4.08-1.25,12.13,6.42,27,9.67,41.77,1.62,7.39,2.11,14.75-.27,21.76-2.38,7-7.67,13.54-17.54,19.37-2.55-1.05-5.42-.74-8.42-.1-3,.63-6.12,1.62-9.12,2.01-6.01.78-11.56-.86-14.82-12.67-4.06-3.25-4.91,2.83-6.31,7.56-1.41,4.71-3.36,8.08-9.48-.6l-6.14-8.7,10.7-11.59,10.58-11.7c2.04,2.9,6.19,8.64,8.11,6.51-5.18-7.18-1.03-18.14.94-30.21,1.99-12.06,1.82-25.03-11.22-36.13-5.66,2.26-11.42,4.35-17.13,6.52-5.73,2.13-11.42,4.36-17.19,6.42-11.81-7.46-4.52-25.68,6.61-33.31,23.33,9.74,21.39,6.72,28.05-11.64Z"/><path class="cls-6" d="M938.8,587.42l-3.93-5.87c9.69-5.38,19.42-10.63,28.99-16.13-8.25,7.43-16.66,14.66-25.07,22Z"/><path class="cls-6" d="M847.06,729.22c-.52,15-7.26,20.32-13.97,24.97-6.7,4.63-13.38,8.64-13.92,21.14,6.07-1,2.3-6.98,2.52-12.01l-13.78-5.98c8.98-23.01,24.78-18.99,39.15-28.12Z"/></g></g><path class="cls-7" d="M1011.59,621.11c-1.36-4.88-4.53-8.01-6.72-10.01-9.89-9.04-22.33-15.93-33.43-20.9-11.1-4.97-20.84-8.02-25.34-9.37-32.85-10.97-60.05-14.75-66.42-15.6-53.99-7.24-106.31-5.63-135.59-3.92-18.8,1.3-41.65,3.21-67.61,6.12,0,0-44.63,5.03-88.76,12.53-104.23,17.71-235.76,58.98-247.24,62.61-33.02,11.16-169.12,58.22-214.17,103.5-5.97,6-18.34,18.77-16.19,32.87,2.59,17.02,24.97,27.3,43.6,34.06,65.08,23.58,131,20.97,182.08,18.49,76.44-3.71,114.66-5.56,152.13-9.43,42.13-4.36,94.99-9.78,163.77-23.27,85.51-16.78,141.04-35.2,196.02-53.67,0,0,37.46-12.59,87.54-39.42,0,0,60.27-32.3,75.13-70.96,2.89-7.51,1.2-13.63,1.2-13.63ZM993.81,634.29c-13.45,33.49-70.29,62.43-70.29,62.43-47.23,24.05-82.69,35.62-82.69,35.62-52.06,16.98-104.64,33.93-185.82,50.07-65.3,12.99-115.57,18.72-155.64,23.32-35.63,4.09-72.02,6.46-144.8,11.2-48.64,3.17-111.4,6.76-173.86-12.15-17.88-5.41-39.39-13.78-42.17-28.33-2.31-12.06,9.24-23.27,14.82-28.54,42.1-39.78,170.93-82.96,202.19-93.21,10.87-3.35,135.46-41.45,234.47-58.79,41.9-7.33,84.34-12.56,84.34-12.56,24.69-3.03,46.43-5.14,64.32-6.64,27.87-2.07,77.7-4.52,129.29.59,6.09.61,32.07,3.29,63.58,12.04,4.31,1.06,13.66,3.48,24.33,7.52,10.66,4.04,22.65,9.7,32.24,17.26,2.12,1.67,5.2,4.28,6.58,8.45,0,0,1.72,5.21-.89,11.72Z"/></g><g id="Layer_9"><text class="cls-2" transform="translate(219.07 802.73) rotate(-10)"><tspan x="0" y="0">Deli &amp; Grill</tspan></text></g><g id="Layer_21"><text class="cls-3" transform="translate(296.46 430.64) rotate(-51.34)"><tspan x="0" y="0">2</tspan></text><text class="cls-3" transform="translate(346.7 367.15) rotate(-38.48)"><tspan x="0" y="0">9</tspan></text><text class="cls-3" transform="translate(410.55 317.77) rotate(-28.85)"><tspan x="0" y="0">t</tspan></text><text class="cls-3" transform="translate(463.37 285.65) rotate(-13.75)"><tspan x="0" y="0">h</tspan></text><text class="cls-3" transform="translate(541.75 269.05) rotate(2.21)"><tspan x="0" y="0"> </tspan></text><text class="cls-3" transform="translate(577.94 267.04) rotate(16.74)"><tspan x="0" y="0">S</tspan></text><text class="cls-3" transform="translate(648.39 286.91) rotate(45.43)"><tspan x="0" y="0">t</tspan></text></g><g id="Layer_16"><path class="cls-1" d="M95.09,265.78C266.51-13.38,650.93-77.51,896.72,143.87c250.63,224.21,229.26,623.92-39.17,824.71-237.29,179.69-580.91,129.81-751.31-116.05C-13.95,681.63-15.6,441.42,95.09,265.78h0ZM99.24,268.29C-6.6,443.11,12.81,669.56,138.78,828.65c213.57,274.79,640.11,262.62,825.51-36.22,187.26-305.48,3.1-699.13-348.38-759.45C413.51-2.97,203.78,90.33,99.24,268.29h0Z"/></g><g id="Layer_17"><path class="cls-5" d="M1873.72,832.35c32.42-6.63,49.33-12.6,49.36-12.46,0-.14-17.55,4.83-49.8,9.74-32.15,4.86-79.28,9.09-134.63,6.59-55.06-2.49-118.96-11.44-177.42-32.8-29.08-10.68-56.53-24.53-78.75-42.09-22.22-17.54-38.9-38.79-46.86-63-8.28-24.27-9.17-49.53-.68-73.8,8.35-24.24,22.88-49.91,50.78-66.2,36.39-21.24,101.32-20.85,126.41,5.6-4.05,12.61-.28,26.45,8.74,38.54,9.28,12.45,23.52,21.89,38.43,27.43,14.95,5.62,30.17,7.29,42.29,6.98.32-.02.62-.03.95-.05,1.58,1.64,3.33,3.28,5.47,4.85,10.39,7.99,28.04,13.66,47.62,14.68,19.6,1.13,41.16-1.73,61.36-8.52,20.21-6.78,37.07-16.94,48.44-28.36,10.38-10.28,15.84-21.48,17.52-31.2,6.08-1.71,12.16-4.07,17.92-7.14,13.93-7.38,26.66-18.95,31.58-33.75,2.43-7.35,2.56-15.01.54-22.03-2-7.03-6.03-13.34-10.89-18.59-9.89-10.56-22.43-17-33.02-21.38-3.54-1.42-6.87-2.62-10.03-3.65-1.98-12.44-9.57-26.69-24.35-39.34-8.14-6.97-18.42-13.46-30.91-18.44-6.23-2.48-12.99-4.6-20.22-6.11-1.81-.39-3.66-.72-5.5-1.03l-1.39-.23c-.49-.07-.05-.02-.21-.04l-.11-.06c-.13-.08-.24-.11-.21-.17l.28-.23.03-.02s0,.11.12-.43c.18-.77.3-1.56.43-2.34.23-1.57.33-3.16.3-4.76-.15-6.41-2.58-12.9-7.26-18.61-3.37-4.12-7.83-7.81-13.32-10.7-5.49-2.87-12.13-4.99-19.36-5.56-3.6-.31-7.3-.2-10.85.29-1.79.25-3.54.61-5.2,1.02-.75.2-1.89.5-2.28.65-.11.05-.16.07-.16.08-.14.13-.37.35-.64.68l-.3.37s-.06-.05-.09-.1l-.26-.4-.21-.32-.13-.18-.07-.11-.36-.91c-.99-2.52-2.36-5.06-4.18-7.45-3.58-4.81-9.3-8.97-15.76-11.43-6.45-2.52-13.22-3.51-19.41-3.73-12.5-.38-22.87,2.51-32.44,4.47-32.01,6.57-43.08,13.62-49.74,17.09-3-4.12-7.95-7.57-13.6-10.16-11.43-5.2-25.36-7.72-40.13-8.87-14.83-1.08-30.73-.68-47.22,1.43-16.44,2.2-33.71,5.87-50.18,13.44-8.12,3.82-16.2,8.79-22.14,15.8-2.94,3.49-5.2,7.51-6.32,11.76-.56,2.13-.84,4.3-.85,6.45.01.54,0,1.08.04,1.62l.07.73h-.01s-3.41,2.72-3.41,2.72l-4.99,3.88-4.21,3.31s0,.04-.01.09c-.02.02-.04.02-.09.03h-.03s.02.01-.08-.01l-.8-.23-3.22-.87c-4.3-1.12-8.71-2.05-13.17-2.76-8.94-1.42-18.15-1.95-27.14-1.38-18.08,1.04-34.73,6.84-46.42,14.91-11.84,8.05-19.15,17.93-22.95,27.45-1.48,3.69-2.38,7.31-2.92,10.86-35.39,7.58-80.09,26.24-79.31,73.49-20.47,6.87-47.27,24.24-30.49,54.07-25.64.55-41.66,35.82-38.27,52.1-36.38-4.26-52.14,42.14-3.88,70.59-8.25,3.01-19.47,2.3-25.42,7.22-3.52,2.91-3.94,6.62-4.08,9.49-2.02,42.18,38.68,88.57,38.68,88.57,28.6,27.33,67.17,56.32,118.77,80.71,211.17,99.8,464.76,39.44,509.12,28.31-40.7,7.54-284.03,50.38-461.28-28.01-37.82-16.73-119.38-54.25-143.72-114.99-10.4-25.96-12.8-62.38-10.3-62.3,2.73.09-30.55-62.04,10.68-74.08-17.91-24.53,5.82-33.06,29.66-45.93-6.06-23.23,5.32-38.79,27.86-55.46-9.9,11.05-31.85,45.47-9.94,54.49-17.53,14.4-47.01,43.74-6.54,55.2-29.93,21.86-38.93,52.14,2.73,71.24-13.74.45-50.44.72-38.81,25.96,5.13,13.99,31.4,23.93,35.44,25.94,8.39,22.54,18.6,41.79,28.86,55.8,63.49,45.08,170.6,106.76,312.85,116.62,204.29,14.17,392.36-84.67,391.09-86.75-1.32-2.18-232.15,66.26-229.31,72.17.68,1.42,17.99-1.18,60.73-9.91,107.37-21.93,178.65-65.81,214.47-91.59-142.27,69.88-301.66,92.3-416.78,65.24-40.05-9.41-110.83-31.79-172.27-72.1-114.3-74.99-36.34-38.84-36.14-38.72,5.99,3.55-57.34-64.59-60.91-77.56-1.79-6.49-1.88-13.34-.52-20.82.64-3.77,1.63-7.7,2.29-12.17.17-1.12.3-2.27.38-3.48l.07-1.92c-.04-.91-.05-1.87-.17-2.79-.2-1.88-.63-3.71-1.25-5.48l-.93-2.69-.49-1.38c-.19-.42-.41-.78-.61-1.16-3.61-.23-7.56-.3-11.15-.81-.59-.1-.51-.1-.7-.14-.13-.04-.25-.08-.37-.12-.23-.07-.48-.14-.66-.23-.43-.15-.74-.33-1.04-.48-1.06-.67-1.54-1.3-1.95-2.88-.74-3.2.96-8.51,3.88-13.4,2.93-4.99,7.01-10.01,11.77-14.71l1.81-1.74,2.75-2.47c2.78-2.39,5.88-4.82,9.78-7.25l25.72-15.33-32.92-.88c-5.36-.19-10.08-.66-14.25-1.64-.69-.14-.66-.16-.88-.21l-.54-.14-.99-.31c-.63-.22-1.23-.43-1.72-.66-1.19-.52-1.92-1.03-2.22-1.38-.32-.35-.43-.53-.5-1.02-.18-.93.68-3.17,2.73-5.36.49-.55,1.04-1.11,1.65-1.66l.93-.83.49-.41c.13-.12.32-.26.78-.6,1.33-1.06,3.51-2.47,5.49-3.63,2.11-1.2,4.37-2.35,7-3.5l33.16-13.94-31.4-2.15c-5.3-.35-10.05-.69-14.12-1.35-2.03-.32-3.96-.7-5.79-1.15-.95-.2-1.8-.46-2.68-.7l-1.31-.37c-3.6-1.08-6.83-2.48-9.72-4.11-.57-.32-1.16-.63-1.7-.97-1.25-.79-2.43-1.63-3.51-2.52-7.93-6.5-11.01-15.8-10.62-24.67.34-8.94,3.77-17.53,8.7-24.84,4.96-7.3,11.52-13.39,18.77-17.79,1.54-.29,3.1-.46,4.68-.53,1.8,6.02,4.52,11.38,7.66,15.82,4.01,5.66,8.49,10.02,12.43,13.33,8,6.57,13.54,9.2,13.45,9.27.1-.04-4.63-3.44-10.79-10.66-6.03-7.13-13.29-18.63-13.44-33.29,0-.04,0-.08,0-.12-.02-1.79.07-3.63.29-5.49.68-5.65,2.47-11.54,5.76-17.32,4.36-7.71,11.43-15.2,21.21-20.8,9.72-5.64,22.13-9.14,35.49-9.42,6.69-.17,13.58.45,20.48,1.74,3.45.65,6.9,1.46,10.32,2.44l2.56.75,2.01.63c.94.29,1.88.61,2.82.94l11.33,4.03c3.08-2.66,6.19-5.53,9.41-8.13l3.3-2.6,2.48-1.89,5.13-3.93c1.92-1.51,2.92-2.23,6.52-5.3l4.45-3.93-1.06-4.93c-.1-.39-.15-.88-.19-1.31l-.05-.42c-.03-.29,0-.57-.04-.85,0-1.11.12-2.21.4-3.28.52-2.15,1.59-4.24,3.2-6.26,3.23-4.07,8.53-7.78,14.63-10.89,12.35-6.24,27.25-10.27,41.64-12.93,14.49-2.63,28.85-3.9,42.15-3.87,13.23.05,25.67,1.38,35.22,4.65,4.74,1.62,8.64,3.76,11.2,6.33,2.56,2.56,3.75,5.57,3.87,8.58.14,6.11-3.16,11.63-6.01,15.8-6.12,8.41-11.1,12.55-10.94,12.61-.13-.09,5.81-3.36,14.08-11.23,3.79-3.9,8.56-8.98,10.17-16.35,5.58-4.54,14.79-10.15,27.83-14.93,6.74-2.48,14.49-4.75,23.02-6.32,8.45-1.54,17.9-2.45,26.75-1.42,4.39.52,8.51,1.55,11.77,3.18,3.27,1.63,5.71,3.79,7.4,6.57.85,1.39,1.49,2.93,1.96,4.6l.17.67.35,1.51c.19,1.02.35,2.05.41,3.15.2,2.14.04,4.53-.22,7.12-1.27,10.53-3.29,23.77-4.16,32.33l17.2-18.06,7.51-7.83c2.22-2.26,4.23-3.9,6.3-4.9l1.56-.77,1.51-.54c.69-.24.72-.19,1.14-.31.64-.13,1.28-.24,1.91-.3,1.27-.13,2.57-.15,3.88,0,5.31.5,11.36,3.67,14.97,8.22,2.58,3.12,3.99,6.73,4.18,10.34.03.9.02,1.81-.08,2.72-.08.46-.11.9-.22,1.36l-.35,1.4-.68,1.81c-.98,2.41-2.68,4.95-4.19,7.51l-4.48,7.43c6.94.22,14.46.35,21.42.64l5.01.4,3.4.39c1.46.18,2.9.39,4.31.63,5.7.95,11.2,2.37,16.41,4.11,10.45,3.49,19.73,8.31,27.44,13.71,11.85,8.26,19.99,17.83,24.62,27.03-1.25-.31-2.48-.6-3.58-.86-6.41-1.44-10.03-1.97-10.02-1.98l8.34,4.38c2.21,1.2,4.83,2.64,7.73,4.33,3.31,1.92,6.96,4.15,10.82,6.73.8.52,1.59,1.05,2.38,1.61,8.09,5.65,16.91,12.9,22.71,21.71,5.86,8.79,8.06,19.04,4.57,29.42-3.42,10.37-11.66,19.72-21.32,26.61-1.61,1.15-3.27,2.2-4.94,3.21-3.06,1.84-6.2,3.47-9.38,4.84-5.62,2.43-11.31,4.11-16.73,4.96-10.16,1.67-19.1.14-24.79-1.84-5.72-2-8.53-3.9-8.57-3.83.08-.05,1.54,2.44,6.43,6.02,2.47,1.75,5.94,3.71,10.6,5.29,4.66,1.6,10.55,2.74,17.18,2.93,3.17.1,6.53-.03,9.93-.38-4.05,6.45-9.92,13.03-17.84,19.12-11.06,8.55-25.83,16.19-42.91,21.93-17.06,5.73-34.76,9.06-50.82,9.59-15.55.57-29.42-1.76-39.37-6.31-.33-.14-.68-.27-.98-.42-4.08-1.92-7.4-4.13-10.13-6.41-4.12-3.41-6.92-6.98-8.74-9.86-3.05-4.88-4-7.92-4.07-7.9.08,0-.51,3.04.48,8.64.41,2.09,1.07,4.56,2.33,7.28-8.5-1.94-17.44-4.93-25.85-9.38-10.79-5.64-20.72-13.61-27.91-23.21-7.16-9.54-10.91-19.89-9.74-28.45.57-4.26,2.37-8,5.32-10.93,2.91-2.95,7.05-5.15,11.56-6.59,6.64-2.12,13.4-2.8,19.01-3.04,1.22-.05,2.38-.09,3.47-.11.8-.02,1.57-.03,2.28-.03,6.34,0,9.96.28,9.95.24-.02.03-3.13-1.26-9.3-2.89-4.93-1.18-12.05-2.82-21.33-2.77-.11-.66-.15-1.34-.22-2.01,1.5-4.61,4.24-10.92,10.5-16.68,4.15-3.89,10.06-7.19,17.26-9.38,4.14-1.27,8.71-2.18,13.65-2.61.01,0,.02,0,.04,0,13.42-1.27,29.09.6,43.45,5.5,14.41,4.89,25.78,12.38,32.27,20.94,6.66,8.54,8.36,18.08,7.73,26.23-.6,8.2-3.08,15.02-4.97,19.68-1.95,4.67-3.32,7.25-3.28,7.26-.03-.02,2.61-2.01,6.63-6.09,3.95-4.1,9.48-10.34,13.33-19.3,1.92-4.49,3.29-9.68,3.4-15.43.08-5.74-1.21-12.05-4.51-18.29-5.22-10.22-16.1-19.72-30.2-26.37,11.65,1.94-43.13-21.52-84.92-23.49-29.11-1.37-74.49,5.39-109.34,14.83-15.82,4.25-31.54,9.57-46.71,15.99-22.06,8.66-45,20.22-66.72,35.21-31.43,21.69-60.7,50.3-78.58,84.99-8.85,17.31-14.27,35.33-14.97,53.21-.66,17.57,2.51,34.39,8.06,49.79,11.18,30.88,31.72,55.78,52.51,73.86,20.88,18.19,41.98,29.72,56.97,36.72,15.12,6.97,24.2,9.73,24.15,9.8.08-.06-7.94-4.25-20.69-12.95-12.66-8.72-29.91-22.21-45.93-41.06-12.31-14.44-23.85-32.15-31.65-52.3,12.87,17.23,28.43,32.54,41.37,42.82,15.6,12.39,32.19,23.4,49.97,33.18,2.5,1.38,49.29,26.61,110.48,42.25,71.45,18.26,202.6,51.76,330.52,6.47,115.57-40.92,160.68-122.15,173.09-147.35-15.25,22.85-41.88,54.26-87.62,81.74-118.51,71.2-266.62,56.71-295.39,53.48,15.41-4.99,125.11-22.76,150.98-28.01ZM1305.21,476.55c-.36.12-.72.26-1.07.38-.63-3.46-.14-7.01,1.04-10.46-.33,3.47-.34,6.86.04,10.08ZM1618.52,382.45c-.07-.97-.25-1.97-.5-2.97,1.27.66,1.89,1.53.5,2.97ZM1034.39,688.54"/></g></svg>